<?xml version="1.0" encoding="UTF-8"?>
<svg id="Layer_1" data-name="Layer 1" xmlns="http://www.w3.org/2000/svg" viewBox="0 0 427.28 127.12">
  <defs>
    <style>
      .cls-1 {
        fill: #8b461f;
      }

      .cls-1, .cls-2 {
        stroke-width: 0px;
      }

      .cls-2 {
        fill: #f37321;
      }
    </style>
  </defs>
  <path class="cls-1" d="m191.78,96.2c.2.18,1.94,3.37,2.17,3.69,1.27,1.74,2.86,3.06,4.6,3.99,4.93,2.7,11.23,2.45,16,.44,1.54-.65,2.91-1.72,4.32-2.66,1.74-1.16,3.16-1.72,3.33,1.26.09,1.4,1.01,1.99,2.32,1.98,5.13-.02,10.26-.02,15.4-.13,1.7-.03,2.61-.89,1.51-2.58-2.28-3.49-2.79-7.36-2.79-11.4,0-2.5.01-5.01.01-7.51.01-6.15.02-12.29-.05-18.44-.1-9.05-4.22-15.06-12.53-17.95-.67-.24-1.35-.44-2.04-.61-6.21-1.72-12.58-1.41-18.7.59-5.6,1.84-10.13,5.25-10.66,11.93-.3,3.73,1.25,6.78,4.24,8.27,2.01,1,4.1,1.13,6.02.33,1-.39,1.96-1.04,2.85-1.93.68-.69,1.22-1.4,1.57-2.15,1-1.97.86-4.13-.42-6.42-1.31-2.31-.63-4.3,1.32-5.77,2.57-1.93,6.79-1.24,9.32.99.79.68,1.4,1.51,1.76,2.46,2.3,5.99-.11,11.81-6,14.67-3.16,1.54-6.48,2.61-9.84,3.56-9.54,2.71-15.91,8.68-14.63,19.22m31.11-2.45c0,.23-.02.44-.05.67-.03.23-.08.44-.13.67-.06.23-.11.44-.19.65-.07.22-.16.42-.25.64-.09.2-.19.41-.31.6s-.24.39-.36.58c-.51.74-1.14,1.4-1.85,1.93-.17.13-.35.25-.53.36-.92.58-1.92.93-2.92.98-3.52.18-6.15-2.2-6.86-6.24-1.29-7.31,1.18-12.83,7.5-16.67,1.82-1.1,3.66-2.2,5.83-3.49.58,6.77.24,13.05.14,19.31Z"/>
  <g>
    <path class="cls-1" d="m422.22,112c-5.18-1.24-10.47-2.04-15.48-3.93-.93-.35-1.67-.86-1.95-1.58-.03-.07-.05-.13-.07-.2l-2.29-.03s.03.06.03.08l-1.6-.1-12.49-.79c.03.27.1.49.22.66l-3.73-.04c-.25.04-.57.04-.95-.01-13.51-1.76-27.11-1.97-40.7-2.42-3.18-.1-3.84-1.21-2.96-4.33.41,1.41.14,2.77,1.54,3.73,1.38-4.13-.7-8.2.31-12.11,1.1.18-.56,2.35,1.16,1.92,1.03-.25.59-1.5.52-2.3-.09-.95-.35-1.91-.63-2.84-.77-2.56-2.8-4.57-2.95-7.46-.07-1.48-.52-3.58-2.88-3.03-2.4.56-1.64,2.65-1.24,4.04.5,1.7.18,2.6-1.06,3.9-2.17,2.29-2.75,5.73-1.29,8.15,1.51,2.49,1.03,4.87,1.55,7.28.56,2.6-.41,3.31-2.79,2.95-.53-.08-1.09-.05-1.63,0-1.75.18-2.62-.38-1.66-2.14,1.82-3.34,1.55-6.91,1.41-10.49-.03-.71-.27-1.49.25-2.16,1.76-2.24,1.63-6.08-.56-7.12-1.52-.73-1.44-1.26-1.07-2.61.41-1.52-.23-2.89-2.03-3.02-1.6-.11-2.49.93-2.34,2.45.15,1.5-.21,2.43-1.66,3-.73.29-.95,1.15-1.07,1.92-.5,3.24-3.27,6.16,0,9.88,1.09,1.24.33,4.93.92,7.47.47,2.05-.12,2.97-2.59,3.05-15.11.46-30.19,1.56-45.22,3.17-22.36,2.39-44.58,5.85-66.81,9.15-28.93,4.29-57.88,8.3-87.19,8.62-20.14.22-40.21-.5-59.75-6.17-9.25-2.69-17.95-6.4-25.14-13.62,3.98-.97,7.62-1.99,10.85-4.05,4.3-2.74,7.79-6.24,10.3-10.69.42-.76.81-1.61-.08-2.33-1.04-.85-1.53.12-2.11.71-.31.31-.54.68-.82,1.01-9.53,11.24-26.87,9.07-33.37-4.16-2.14-4.36-3.16-9.02-3.47-13.79-.5-8.05.33-15.87,4.96-22.82,4.06-6.1,14.06-8.41,20.01-4.56,2.41,1.56,4.16,3.71,3.13,6.82-.93,2.83-2.99,4.52-6.07,4.54-4.39.02-6.33,2.65-4.98,6.92,1.18,3.7,4.45,6.16,8.53,6.41,4.79.29,8.63-1.88,10.63-6.01,2.8-5.8,1.34-13.15-3.41-17.66-3.65-3.46-8.14-4.92-12.94-5.45-10.83-1.2-21.09.33-28.75,8.81C-1.39,59.83-1.96,73.09,3.17,86.45c4.75,12.37,14.81,17.89,27.86,18.26,1.23.03,2.48-.31,3.56.97,5.02,5.99,11.64,9.61,18.83,12.36,11.95,4.58,24.42,6.6,37.09,7.84,25.05,2.46,49.99.92,74.89-1.77,13.91-1.5,27.76-3.65,41.63-5.58,17.53-2.45,35.01-5.22,52.57-7.41,18.57-2.32,37.17-4.03,55.86-4.95,16.97-.84,33.92-.48,50.88.54,18.67,1.14,37.22,3.08,55.48,7.28,1.48.34,4,1.68,4.33.07.4-1.92-2.43-1.69-3.95-2.06Z"/>
    <path class="cls-1" d="m98.89,93.51c-4.48,4.91-9.18,8.93-15.7,10.29-3.69.77-7.34.62-10.91-.65-5.83-2.07-8.48-5.91-8.57-13.14-.15-11.75-.11-23.5-.1-35.26,0-5.14.15-10.27-6.32-11.97-.61-.16-.85-.69-.78-1.26.11-.92.89-.79,1.5-.8,7.07-.02,14.15-.02,21.22-.03,2.28,0,1.49,1.76,1.49,2.86.03,14.15,0,28.29,0,42.44,0,1.96-.04,3.93.21,5.86.63,4.84,3.5,6.75,8.23,5.66,4.93-1.14,9.52-6.42,9.53-11.49.02-11.97-.18-23.94-.26-35.91-.03-3.73-1.66-6.2-5.34-7.17-.72-.19-1.67-.13-1.62-1.19.06-1.34,1.2-1.04,1.98-1.04,6.64-.05,13.28.02,19.91-.12,2.13-.04,2.29,1.21,2.31,2.67.04,3.7,0,7.4-.01,11.1-.02,12.84.04,25.68-.09,38.52-.04,3.96.87,7.08,4.88,8.59.61.23,1.37.48,1.1,1.26-.12.34-.89.65-1.37.66-6.53.04-13.06.03-19.59.04-1.51,0-1.73-.94-1.71-2.17.03-2.59.01-5.17.01-7.76Z"/>
    <path class="cls-1" d="m152.48,102.41c-.9,1.46-1.86,1.1-2.66,1.1-7.61.01-15.22,0-22.84-.05-1.04,0-2.52.42-2.88-.81-.31-1.02,1.06-1.43,1.88-1.91,2.17-1.27,3.03-3.11,3.02-5.68-.07-23.6-.08-47.2-.04-70.79,0-4.93-1.46-8.73-6.55-10.35-.59-.19-1.35-.4-1.2-1.27.13-.8.95-.84,1.51-.99,8.31-2.26,16.22-5.32,23.31-11.67,0,1.73,0,2.86,0,3.99.02,28.49.03,56.98.08,85.48,0,5.35-1.2,11.31,6.37,12.94Z"/>
    <path class="cls-1" d="m271.94,50.12c3.81-7.09,8.83-10.74,16.07-10.55,5.31.14,9.39,2.41,11.49,7.54,2.18,5.33,1.1,12.47-2.47,15.89-2.84,2.73-6.3,3.35-9.98,2.25-3.19-.96-5.05-3.27-5.49-6.6-.32-2.42-.06-4.23,3.24-4.18,3.24.05,5.66-3.14,5.38-6.47-.25-3.06-2.38-4.72-5.89-4.67-3.92.05-6.47,2.28-8.39,5.36-2.52,4.05-3.74,8.55-3.78,13.3-.08,10.77-.09,21.55-.02,32.32.03,4.33,1.23,5.76,5.27,7.09.66.22,1.75-.03,1.7,1.08-.06,1.34-1.24.97-2.01.97-8.16.03-16.32.02-24.48.02-.77,0-1.66.02-1.91-.83-.2-.69.52-1.2,1.04-1.51,3.01-1.84,3.39-4.63,3.37-7.87-.1-13.82,0-27.64-.03-41.46,0-5.68-.6-6.48-5.89-8.64-.71-.29-1.46-.45-1.35-1.5.13-1.2,1.07-.92,1.73-.93,6.85-.08,13.71-.11,20.56-.18,1.45-.02,1.86.73,1.83,2.05-.05,2.16-.01,4.32-.01,7.54Z"/>
    <path class="cls-1" d="m414.35,83.71c.42-6.63.32-13.26-1.4-19.72-3.06-11.52-14.46-16.6-24.05-10.67-4.89,3.03-6.88,7.94-7.84,13.31-1.19,6.65-1.5,13.36-.94,20.12.24,2.92.23,5.86.29,8.8.02.85.2,1.91-.81,2.28-.93.34-1.61-.42-2.23-1.03-4.77-4.72-7.7-10.4-9.04-16.96-1.91-9.37-1.12-18.39,3.82-26.71,6.28-10.57,18.68-15.89,30.81-13.46,12.67,2.54,21.79,11.75,23.75,24.1,1.95,12.26-1.17,23.2-8.81,32.9-.72.92-1.45,2.22-2.84,1.69-1.31-.5-.67-1.91-.69-2.9-.07-3.91-.03-7.82-.03-11.73Z"/>
    <path class="cls-1" d="m349.1,83.1c.1-6.29.21-12.6-1.31-18.79-2.07-8.4-7.16-13.01-15-13.35-7.17-.31-13.1,4.08-15.69,11.79-2.36,7.02-2.37,14.32-2.28,21.61.04,3.48.16,6.96.19,10.44,0,.93.44,2.18-.67,2.65-1.29.55-1.94-.74-2.58-1.51-7.55-9.04-10.08-19.52-8.52-31.03,1.69-12.47,9.82-21.73,21.45-24.73,18.76-4.84,35.88,7.36,37.37,26.72.84,10.86-2,20.64-9.08,29.04-.73.87-1.43,2.18-2.87,1.69-1.55-.53-.97-2-.98-3.11-.05-3.8-.02-7.61-.02-11.42Z"/>
    <path class="cls-1" d="m174.33,18.67c.88,1.17.63,2.38.63,3.49,0,5.43.02,10.87-.09,16.3-.04,1.68.42,2.34,2.18,2.26,2.82-.13,5.65-.08,8.48-.03.98.02,2.4-.43,2.31,1.38-.07,1.47-1.27,1.26-2.19,1.27-2.83.04-5.66.11-8.48-.03-1.68-.08-2.27.36-2.27,2.13.04,14.89-.12,29.78,0,44.67.06,7.6,3.99,9.93,10.73,6.71.62-.3,1.15-.7,1.69-.01.79,1.02-.15,1.67-.71,2.15-3.94,3.39-8.66,4.87-13.74,5.11-9.66.44-14.94-4.49-15.03-14.14-.13-14.24-.16-28.48-.07-42.72.02-2.7-.55-4.2-3.54-3.87-.52.06-1.08-.11-1.6-.23-.71-.17-1.58-.22-1.61-1.26-.04-1.06.79-1.11,1.52-1.31,1.78-.47,3.6-.81,5.31-1.46,7.89-3.03,12.52-8.97,14.9-16.9.34-1.14.09-2.6,1.58-3.53Z"/>
    <path class="cls-2" d="m404.84,104.92c-.2.52-.22.97-.12,1.36l-2.29-.03c-.06-.16-.15-.35-.26-.54-2.18-3.73-3.42-7.86-5.13-12.72-.95,4.47-2.46,7.16-6.3,8.16-1.8.46-2.48,2.46-2.39,4.16,0,.05,0,.1.01.14.03.27.1.49.22.66l-3.73-.04c.54-.08.8-.36.88-.78.06-.33,0-.75-.1-1.23-.24-1-.99-1.91.39-2.76,4.81-2.98,5.11-7.93,5.57-12.7-.6-.95-1.25-.29-1.82-.26-4.33.29-6.27-1.78-5.51-6.06.3-1.69.85-3.35,1.37-4.99.19-.6.63-1.62.93-1.61,4.82.22,4.14-6.2,8.42-6.9,1.12-.18.45-2.58.22-3.85-.31-1.73,0-2.99,1.78-3.04,1.66-.05,3.62.14,3.63,2.64,0,.54.29,1.26.04,1.6-3.35,4.52.53,9.36-.68,13.96-.29,1.12.44,1.75,1.17,2.46,1.09,1.05,2.09,2.22,3.03,3.41.5.62.74,1.57.04,2.07-1.05.75-1.1-.45-1.48-1.02-.68-1.02-1.62-1.71-3.69-2.26,2.65,5.86,4.36,11.4,5.64,17.08.24,1.06.6,1.94.16,3.11Z"/>
    <path class="cls-1" d="m400.5,107.95c-3.01-.37-6.02-.73-9.03-1.13-.97-.13-2.35.14-2.88-.7-.11-.17-.19-.39-.22-.66l12.49.79,1.6.1c.42,1.2-.37,1.8-1.97,1.6Z"/>
    <path class="cls-1" d="m326.8,99.51c-.18,1.86.3,3.08-1.2,4.51-.24-1.83-.5-3.07,1.2-4.51Z"/>
  </g>
</svg>